<?xml version="1.0" standalone="no"?>
<!DOCTYPE svg PUBLIC "-//W3C//DTD SVG 20010904//EN"
 "http://www.w3.org/TR/2001/REC-SVG-20010904/DTD/svg10.dtd">
<svg version="1.0" xmlns="http://www.w3.org/2000/svg"
 width="584.000000pt" height="599.000000pt" viewBox="0 0 584.000000 599.000000"
 preserveAspectRatio="xMidYMid meet">
<metadata>
Created by potrace 1.16, written by Peter Selinger 2001-2019
</metadata>
<g transform="translate(0.000000,599.000000) scale(0.100000,-0.100000)"
fill="#000000" stroke="none">
<path d="M0 2995 l0 -2995 1256 0 1256 0 -17 27 c-10 15 -55 77 -99 138 -45
60 -92 126 -104 145 -54 88 -113 223 -132 304 -21 89 -31 243 -17 281 10 28
77 59 77 35 0 -5 -8 -7 -17 -4 -16 5 -16 4 1 -10 10 -8 15 -20 11 -26 -4 -6 1
-20 11 -31 12 -13 17 -32 16 -54 -2 -18 1 -36 7 -40 6 -3 11 -17 11 -30 0 -13
4 -26 9 -29 5 -3 11 -18 14 -33 21 -107 72 -230 99 -239 11 -3 18 -15 18 -30
0 -14 6 -24 14 -24 8 0 17 -7 20 -16 3 -8 2 -12 -4 -9 -12 8 -13 -5 -1 -24 6
-9 11 -10 15 -2 4 6 12 11 18 11 7 0 6 -5 -1 -14 -14 -16 -6 -34 44 -101 16
-22 34 -46 40 -54 35 -48 163 -171 179 -171 19 0 18 1 -2 23 -12 13 -22 28
-22 34 0 6 -7 13 -15 17 -24 9 -17 26 11 26 14 0 32 7 40 15 20 19 34 19 34 0
0 -8 7 -15 15 -15 8 0 14 3 14 8 -5 29 3 42 26 42 14 0 25 -5 25 -11 0 -6 -7
-8 -16 -5 -10 4 -14 1 -12 -6 3 -7 15 -15 29 -16 13 -2 21 0 16 4 -8 9 41 44
62 44 10 0 11 -3 2 -14 -9 -11 -8 -15 5 -20 22 -9 24 -8 24 9 0 10 10 15 30
15 17 0 30 5 30 10 0 6 -11 10 -24 10 -14 0 -28 5 -32 12 -7 11 12 10 95 -8
25 -5 32 -4 27 4 -4 7 -16 12 -27 12 -11 0 -17 5 -14 10 3 6 -1 10 -9 10 -22
0 -30 19 -11 27 10 3 21 0 26 -8 6 -9 12 -10 17 -4 12 18 120 35 148 25 21 -9
23 -8 16 8 -5 9 -8 23 -6 30 1 7 0 8 -3 2 -8 -17 -23 -11 -23 9 0 10 7 22 16
25 8 3 12 11 8 17 -4 7 -3 9 4 5 6 -3 13 -2 17 4 3 5 1 10 -6 10 -7 0 -10 3
-7 6 4 3 16 0 29 -6 19 -11 21 -10 16 3 -4 12 5 19 36 30 28 9 42 20 41 31 -1
9 2 16 8 16 5 0 6 6 1 13 -4 6 -8 15 -9 20 -1 4 -3 10 -4 15 -12 36 5 55 58
67 34 7 44 24 15 26 -14 0 -15 2 -3 6 8 2 22 7 30 10 8 4 19 7 24 7 20 2 15
23 -6 33 -22 11 -22 11 -3 19 11 4 35 23 54 41 18 18 37 33 42 33 4 0 26 17
49 37 27 25 36 39 28 44 -7 5 -9 11 -5 15 4 4 12 3 18 -3 7 -7 18 -7 35 1 31
14 31 28 0 20 -19 -5 -23 -2 -22 17 1 22 26 41 26 20 0 -6 5 -11 11 -11 6 0 8
9 4 20 -4 12 -2 20 5 20 23 0 58 46 55 74 -3 23 -1 25 11 15 12 -9 13 -9 9 3
-4 10 1 17 14 21 17 4 21 13 21 44 0 21 4 33 8 26 4 -7 17 -10 30 -6 12 3 19
9 17 14 -3 4 -13 5 -23 2 -9 -3 -2 8 15 25 22 21 31 37 27 49 -5 16 -4 16 10
-1 18 -22 21 -14 6 15 -10 18 3 29 13 12 2 -5 2 -2 1 5 -4 13 36 59 48 55 4
-2 5 4 2 12 -4 9 0 15 10 15 14 0 21 18 17 43 0 4 7 23 18 42 l18 35 2 -73 c1
-89 11 -245 17 -274 2 -12 21 -31 42 -43 49 -28 64 -52 67 -114 6 -98 -16
-161 -256 -736 -27 -65 -48 -119 -50 -128 0 -4 -5 -15 -10 -24 -9 -17 41 -18
991 -18 l1000 0 0 2995 0 2995 -2920 0 -2920 0 0 -2995z m3274 1423 c-8 -12
19 -5 28 7 5 6 8 3 8 -7 0 -11 5 -15 15 -12 10 4 15 0 15 -11 0 -11 5 -15 15
-11 11 4 15 0 13 -12 -3 -14 5 -17 45 -16 26 1 45 -1 43 -4 -8 -7 36 -39 57
-40 42 -4 47 -6 47 -16 0 -19 37 -45 48 -34 6 6 16 3 28 -10 11 -10 27 -22 37
-25 9 -4 17 -12 17 -19 0 -7 16 -24 35 -37 19 -13 35 -27 35 -32 0 -5 7 -9 16
-9 11 0 14 -5 10 -17 -5 -12 7 -29 39 -59 47 -44 55 -57 30 -48 -22 9 -18 -9
6 -30 14 -12 20 -25 16 -41 -2 -14 -1 -23 2 -20 4 2 13 -1 21 -6 12 -8 12 -12
3 -16 -7 -2 -13 -10 -13 -15 0 -6 3 -9 6 -5 3 3 18 -8 31 -24 14 -16 23 -33
19 -36 -3 -4 -6 -1 -6 5 0 17 -17 15 -24 -4 -3 -8 -2 -12 4 -9 6 3 10 -1 10
-9 0 -26 -2 -31 -10 -29 -11 3 -7 -22 7 -38 5 -8 13 -30 17 -49 4 -25 3 -31
-4 -20 -11 17 -11 17 -15 -27 -1 -18 1 -33 5 -33 12 0 31 -51 24 -63 -4 -7 -4
-9 1 -5 4 4 29 -45 55 -110 26 -64 58 -142 72 -172 13 -30 30 -82 37 -115 7
-33 17 -69 22 -80 5 -11 10 -32 11 -47 1 -16 6 -28 10 -28 4 0 8 -7 8 -15 0
-11 -11 -15 -42 -15 l-43 0 0 -152 c0 -151 0 -154 -32 -220 -89 -188 -286
-284 -483 -234 -219 55 -509 299 -605 509 -52 112 -26 236 63 304 89 68 265
112 482 120 334 13 484 -50 541 -225 25 -79 44 -90 25 -14 -17 61 -29 85 -74
134 -40 44 -108 82 -180 101 -27 6 -50 17 -53 22 -2 6 -17 9 -34 8 -25 -2 -27
-1 -10 6 l20 10 -20 1 -20 1 20 9 c11 5 14 9 8 11 -7 1 -17 3 -23 4 -5 1 -17
3 -26 4 -9 0 -12 6 -8 13 5 8 2 9 -9 5 -10 -3 -17 -2 -17 3 0 4 -15 11 -32 15
-18 4 -41 9 -52 12 -11 3 -16 1 -12 -5 4 -6 -2 -8 -15 -5 -16 4 -17 8 -7 14 9
6 6 9 -10 9 -15 0 -21 -4 -16 -12 5 -8 2 -9 -12 -3 -10 5 -29 9 -41 9 -15 1
-18 4 -12 13 7 8 1 9 -25 3 -24 -5 -34 -4 -29 2 4 7 -7 9 -33 5 -24 -4 -31 -3
-19 2 29 12 -65 23 -104 11 -20 -6 -31 -5 -31 2 0 5 -16 0 -36 -11 -26 -16
-35 -18 -31 -7 8 19 -17 14 -43 -9 -15 -13 -20 -15 -17 -4 1 8 -1 4 -7 -8 -5
-13 -16 -23 -23 -23 -7 0 -16 -12 -19 -26 -4 -16 -11 -23 -21 -20 -8 3 -11 1
-8 -4 3 -6 -1 -10 -9 -10 -15 0 -33 -42 -28 -66 1 -6 -4 -11 -10 -12 -97 -10
-246 -21 -293 -21 -58 0 -61 1 -90 39 -16 21 -40 41 -53 44 -14 4 -20 11 -16
19 5 9 4 9 -6 0 -15 -14 -40 -6 -40 13 0 8 -3 14 -7 15 -5 0 -21 2 -38 4 -21
3 -26 2 -15 -5 9 -6 10 -10 3 -10 -6 0 -15 5 -18 10 -3 6 -11 10 -16 10 -6 0
-7 -6 -3 -12 5 -8 1 -8 -10 1 -10 9 -20 11 -24 5 -4 -5 -27 -10 -51 -11 -24 0
-53 -6 -65 -12 -12 -6 -34 -15 -50 -21 -25 -9 -27 -12 -15 -27 12 -14 12 -16
-1 -8 -20 12 -90 13 -82 1 3 -5 -2 -6 -12 -3 -10 4 -15 3 -11 -3 6 -9 2 -11
-35 -14 -8 -1 -14 -8 -12 -15 1 -7 -2 -10 -7 -6 -6 3 -30 -12 -53 -35 -24 -22
-59 -45 -78 -51 -19 -6 -54 -22 -77 -35 -23 -13 -44 -24 -47 -24 -9 0 18 126
38 173 7 18 14 57 15 87 1 30 4 64 7 75 l6 20 -16 -20 c-16 -19 -16 -19 -10 6
3 17 1 30 -7 35 -9 5 -10 2 -5 -12 4 -10 3 -15 -1 -10 -9 8 -11 86 -3 86 3 0
6 8 7 18 3 58 9 90 17 89 5 -1 12 7 15 18 3 11 15 33 26 48 63 89 81 111 87
109 8 -2 48 37 120 119 70 79 87 99 121 147 17 23 35 42 40 42 6 0 8 3 4 6 -3
3 7 17 23 30 16 14 30 35 32 47 2 15 10 22 25 21 12 0 20 3 17 7 -6 11 66 33
96 30 14 -2 28 -8 31 -13 11 -18 30 3 24 25 l-6 22 19 -22 c18 -21 32 -21 32
-1 0 5 -5 6 -12 2 -7 -5 -8 -3 -3 6 6 10 12 8 27 -9 10 -13 18 -18 18 -12 0 6
11 13 25 17 14 3 25 10 25 15 0 6 10 5 21 -2 15 -7 19 -8 15 0 -5 7 -1 8 10 4
13 -5 16 -2 12 9 -11 26 13 40 34 21 18 -16 18 -16 12 0 -4 10 -1 17 6 17 7 0
10 8 7 20 -5 20 -5 20 23 0 15 -11 31 -16 35 -12 5 4 5 -1 2 -11 -4 -11 -3
-16 3 -12 5 3 8 20 6 38 -3 25 -2 28 8 16 14 -19 46 -21 39 -2 -3 7 -1 13 5
13 5 0 12 -10 15 -22 5 -18 8 -19 21 -8 14 10 16 9 17 -6 1 -17 2 -17 6 -1 4
15 15 21 36 18 4 0 7 6 7 15 0 8 4 13 9 10 5 -4 12 0 14 6 3 8 6 6 6 -4 1 -21
31 -24 31 -4 0 8 5 18 12 22 8 5 9 2 5 -9 -3 -10 -2 -17 3 -17 6 0 10 8 11 18
0 14 2 14 9 -3 7 -17 9 -17 9 -2 1 18 21 25 21 7 0 -12 41 7 52 24 5 7 8 5 8
-5 0 -9 7 -20 16 -23 11 -4 15 -2 11 8 -4 11 -1 13 10 9 10 -4 14 -2 10 4 -3
5 0 10 8 10 13 0 13 -3 1 -21 -12 -19 -11 -21 9 -21 13 0 21 3 19 6 -2 4 3 10
12 13 10 4 13 2 8 -6 -5 -7 0 -9 14 -6 12 4 20 2 16 -3 -3 -5 0 -9 5 -9 6 0
11 7 11 15 0 23 23 46 32 32 4 -6 4 -15 2 -19z m-299 -1206 c28 -20 36 -40 22
-54 -8 -7 -26 -33 -42 -58 -26 -41 -29 -43 -36 -23 -12 33 -40 43 -117 43 -71
0 -125 -13 -153 -36 -12 -11 -16 -11 -17 -2 -3 34 -10 52 -22 56 -9 3 -10 6 0
12 9 6 9 13 1 28 -10 19 -8 21 31 26 106 14 318 19 333 8z m-1019 -67 c-4 -10
1 -15 14 -15 13 0 18 -5 14 -15 -4 -10 0 -15 16 -15 11 0 19 4 16 9 -3 4 41
15 97 24 182 27 296 -5 341 -95 6 -13 21 -28 34 -34 12 -6 19 -13 16 -17 -3
-3 2 -4 13 -2 10 1 17 7 16 12 -1 5 14 16 33 23 22 9 33 19 29 28 -2 7 -1 10
5 7 5 -3 17 -30 26 -60 15 -46 16 -62 5 -107 -19 -86 -55 -162 -125 -266 -83
-124 -155 -204 -248 -275 -200 -153 -355 -151 -514 7 -73 73 -101 138 -117
273 -14 121 2 285 33 346 42 82 91 121 205 163 74 27 99 30 91 9z m919 -41
c23 -9 35 -45 45 -136 5 -42 17 -92 26 -110 10 -18 18 -51 18 -73 1 -35 4 -40
23 -38 14 2 30 -9 48 -35 45 -61 191 -198 273 -255 157 -110 247 -141 391
-135 112 5 177 30 257 101 110 97 159 222 152 396 -3 101 3 115 40 84 22 -18
37 -89 47 -223 2 -25 4 -45 5 -45 1 0 3 -37 5 -82 1 -46 -2 -83 -7 -83 -5 0
-4 -10 3 -21 8 -16 8 -23 0 -29 -7 -3 -9 -14 -5 -23 3 -9 2 -17 -4 -17 -5 0
-8 -12 -6 -27 1 -15 -3 -31 -9 -35 -9 -6 -9 -10 1 -17 11 -6 9 -10 -8 -14 -17
-4 -20 -10 -14 -34 7 -26 6 -27 -12 -13 -10 8 -6 0 9 -18 15 -19 27 -41 27
-50 -1 -12 -5 -10 -15 8 -11 19 -14 21 -15 8 0 -10 -7 -18 -15 -18 -10 0 -13
-9 -10 -30 2 -18 -1 -30 -8 -30 -8 0 -7 -4 2 -9 9 -6 11 -15 6 -27 -5 -11 -7
-25 -6 -32 1 -7 -5 -15 -14 -18 -18 -7 -20 -25 -2 -22 7 2 13 -9 15 -25 2 -17
8 -25 14 -21 6 4 8 3 5 -3 -3 -5 -7 -26 -9 -46 -1 -22 -6 -33 -13 -29 -5 3
-20 7 -32 8 -17 1 -20 -3 -14 -15 4 -9 7 -35 6 -58 -1 -24 1 -43 5 -43 15 0
-2 -47 -21 -58 -16 -10 -19 -9 -19 4 0 9 -5 12 -12 8 -10 -6 -10 -4 0 7 18 19
15 28 -8 22 -13 -4 -27 3 -40 18 -10 13 -19 19 -20 12 0 -6 5 -13 11 -15 6 -2
12 -39 13 -91 1 -48 0 -84 -3 -80 -3 5 -12 9 -19 11 -9 2 -11 -4 -7 -18 12
-38 -7 -41 -26 -5 l-20 36 23 20 23 20 -27 -16 c-15 -9 -29 -12 -32 -7 -3 6 1
13 10 16 8 3 12 11 8 17 -4 8 -9 7 -15 -2 -11 -19 -19 -7 -12 19 3 13 10 19
17 15 6 -4 5 1 -3 10 -14 18 -26 23 -16 8 3 -5 1 -12 -4 -15 -5 -4 -8 -17 -6
-31 1 -14 -2 -25 -6 -25 -5 0 -9 7 -9 16 0 8 -5 12 -11 9 -6 -4 -8 -13 -5 -20
2 -7 -1 -18 -7 -25 -9 -10 -9 -11 0 -6 14 8 28 -10 14 -18 -5 -4 -17 4 -27 16
-11 15 -14 17 -11 6 4 -12 1 -18 -9 -18 -9 0 -12 5 -8 13 4 6 3 9 -1 4 -12
-10 -14 -47 -3 -47 5 0 7 -4 4 -8 -3 -5 2 -19 11 -32 23 -33 23 -56 1 -57 -10
-1 -16 2 -13 8 4 5 1 9 -4 9 -6 0 -11 -5 -11 -12 0 -6 -2 -9 -5 -7 -8 8 7 49
16 43 5 -3 5 5 0 18 -5 13 -14 22 -21 20 -7 -1 -9 5 -6 16 7 22 -18 50 -29 32
-4 -6 -1 -9 6 -8 6 2 14 -3 17 -11 2 -8 1 -11 -4 -8 -5 3 -10 -13 -12 -36 -3
-48 -8 -55 -24 -39 -9 9 -9 12 0 12 7 0 12 5 12 12 0 6 -3 9 -6 6 -7 -7 -42
24 -38 33 2 3 -3 6 -11 6 -8 0 -17 -9 -21 -19 -3 -10 -10 -16 -15 -13 -15 10
-10 -8 11 -42 10 -18 16 -35 11 -37 -4 -3 -14 6 -21 19 -7 13 -17 22 -22 19
-4 -3 -8 1 -8 8 0 10 -2 10 -9 -1 -5 -7 -14 -10 -20 -7 -6 4 -9 11 -7 15 3 4
0 13 -5 21 -6 10 -8 3 -4 -23 2 -21 0 -35 -5 -32 -5 3 -11 1 -14 -4 -3 -5 1
-11 9 -15 8 -3 15 -11 15 -18 0 -10 -2 -10 -9 1 -5 7 -14 10 -21 6 -8 -5 -9
-10 -1 -18 13 -13 15 -31 3 -23 -5 3 -9 -1 -9 -9 0 -8 4 -12 9 -9 4 3 8 0 8
-5 0 -6 -5 -11 -11 -11 -7 0 -9 -11 -5 -30 3 -19 2 -29 -4 -25 -6 3 -10 16
-10 28 0 17 -2 19 -9 8 -5 -8 -7 -19 -5 -26 3 -6 -2 -18 -11 -25 -10 -8 -15
-9 -15 -1 0 6 -4 11 -9 11 -6 0 -8 -8 -6 -19 3 -14 -1 -18 -16 -14 -10 3 -19
0 -19 -6 0 -6 3 -10 8 -10 21 4 32 -3 32 -19 0 -10 6 -24 13 -32 6 -7 1 -6
-13 3 -28 20 -40 21 -40 6 0 -5 4 -8 9 -4 5 3 12 1 15 -4 8 -12 -7 -22 -19
-13 -6 4 -15 16 -21 27 -6 11 -20 21 -30 22 -15 2 -14 1 4 -7 26 -11 28 -29 6
-56 -15 -19 -15 -18 -11 4 3 12 2 20 -3 17 -4 -3 -10 -15 -12 -28 -3 -17 0
-24 11 -24 19 0 43 22 34 31 -4 3 -2 6 3 6 14 -1 61 -40 47 -40 -6 0 -15 5
-18 10 -3 6 -12 10 -18 10 -7 -1 -2 -9 11 -20 21 -17 21 -19 3 -17 -11 0 -19
4 -18 7 1 3 -2 5 -8 5 -5 0 -9 -2 -8 -5 1 -3 5 -13 8 -22 7 -18 -14 -26 -29
-11 -4 5 -22 8 -39 8 -24 1 -32 5 -31 18 1 9 -2 15 -6 12 -5 -3 -6 -23 -4 -45
4 -45 -11 -63 -20 -25 -7 27 -26 25 -26 -1 0 -8 5 -12 10 -9 6 3 10 1 10 -4 0
-16 -20 -13 -26 4 -4 8 -10 12 -15 9 -13 -8 -11 10 4 26 10 12 9 12 -5 1 -10
-7 -18 -20 -18 -27 0 -19 -26 -18 -34 1 -3 8 -1 15 5 15 6 0 7 5 4 10 -11 18
-25 -1 -19 -26 5 -19 2 -24 -14 -24 -11 0 -23 7 -26 16 -3 8 -10 13 -15 9 -6
-3 -7 -13 -4 -22 4 -11 3 -14 -5 -9 -7 4 -13 1 -13 -6 -1 -7 -5 1 -9 17 l-7
30 -11 -25 c-6 -14 -11 -19 -11 -12 -1 19 -31 14 -32 -5 -1 -17 -2 -17 -6 0
-5 17 -12 20 -48 18 -11 0 -14 2 -7 5 6 3 12 13 12 22 0 14 -2 14 -9 3 -5 -8
-14 -10 -21 -6 -9 5 -11 4 -6 -3 4 -7 3 -12 -2 -12 -6 0 -8 -9 -5 -20 3 -11 9
-17 14 -14 5 3 9 1 9 -4 0 -13 -29 -24 -41 -16 -6 3 -16 0 -24 -6 -12 -10 -20
-6 -44 19 -16 17 -33 31 -38 30 -4 -1 -10 0 -13 1 -14 5 -41 8 -37 3 7 -7 -13
-63 -23 -63 -4 0 -11 11 -14 25 -7 27 -35 25 -37 -4 0 -9 -7 0 -14 19 -10 26
-14 30 -14 13 -1 -29 -31 -23 -45 10 -9 21 -13 23 -23 12 -8 -9 -9 -16 -3 -20
6 -3 10 -14 10 -23 -1 -15 -2 -15 -14 1 -11 14 -15 15 -20 5 -3 -7 -3 -1 -1
14 4 33 -8 44 -25 23 -11 -14 -15 -13 -27 5 -8 11 -22 20 -31 20 -14 0 -14 2
-3 9 11 7 9 10 -8 16 -20 6 -26 17 -22 39 1 5 -5 4 -13 -4 -21 -17 -20 -2 2
24 17 20 16 20 -3 6 -11 -8 -23 -19 -26 -24 -4 -4 -10 -3 -14 4 -4 7 -3 15 2
19 17 11 23 41 9 41 -8 0 -12 9 -11 25 2 16 -1 23 -8 18 -7 -4 -8 0 -4 13 7
18 6 18 -9 -1 -15 -18 -16 -18 -10 -2 8 24 -4 44 -15 26 -7 -11 -9 -10 -9 3 0
9 5 20 10 23 6 4 8 11 4 16 -3 5 -10 7 -15 4 -5 -4 -9 1 -9 10 0 9 3 14 8 12
4 -3 7 5 7 18 0 13 -4 23 -10 22 -5 -1 -9 4 -7 11 1 6 -1 11 -5 11 -28 -5 -36
2 -18 15 15 11 17 17 8 28 -19 22 -35 71 -21 62 8 -5 9 -2 5 9 -3 9 0 23 8 31
8 8 15 19 15 24 0 14 25 22 66 22 19 0 34 4 34 8 0 8 74 7 88 -2 5 -3 16 8 26
25 19 32 12 31 231 29 55 0 161 7 235 16 149 18 218 20 234 4 14 -14 38 -13
91 6 42 14 51 14 96 -1 27 -9 49 -21 49 -27 0 -6 7 -5 17 3 15 12 16 12 10 -3
-7 -20 3 -24 19 -8 7 7 9 1 6 -21 -4 -26 -2 -31 11 -26 15 6 26 -11 33 -51 3
-19 14 -28 14 -13 0 7 5 9 10 6 8 -5 7 -11 0 -21 -16 -19 -8 -37 18 -41 19 -2
21 0 14 15 -5 9 -8 34 -8 54 1 20 -1 36 -4 36 -19 -1 -32 3 -27 9 4 3 0 14 -9
24 -10 11 -12 19 -4 24 5 3 7 12 3 18 -4 8 -1 7 9 -1 13 -10 17 -10 21 0 2 7
8 10 12 5 5 -4 3 -13 -3 -19 -7 -7 -12 -19 -12 -28 0 -8 7 -2 15 13 10 19 11
35 5 50 -5 13 -9 16 -10 7 0 -12 -2 -12 -10 2 -11 18 -3 51 11 42 5 -3 9 2 9
10 0 9 -5 16 -11 16 -5 0 -9 17 -8 38 2 53 0 64 -11 57 -5 -3 -10 -2 -10 4 0
6 -9 15 -21 21 -19 10 -20 10 -10 -9 6 -11 19 -22 29 -25 18 -6 27 -36 10 -36
-4 0 -8 4 -8 10 0 5 -8 7 -17 4 -13 -4 -14 -3 -5 3 12 9 0 24 -52 63 -17 13
-18 13 -11 1 6 -11 4 -13 -9 -8 -10 4 -24 1 -31 -7 -16 -16 -107 -12 -113 5
-2 5 -8 9 -13 9 -6 0 -5 -8 1 -20 6 -11 15 -18 19 -16 4 3 8 -1 8 -9 0 -10 -4
-11 -11 -6 -16 13 -50 -14 -43 -33 4 -9 13 -13 22 -10 10 4 15 0 15 -15 0 -15
6 -21 23 -21 22 -1 22 -1 -3 -14 -14 -8 -29 -12 -33 -9 -5 3 -30 7 -56 9 -25
2 -55 8 -66 13 -62 28 -193 39 -242 20 -40 -16 -220 -18 -270 -3 -22 7 -44 10
-47 7 -3 -4 -6 6 -6 20 0 17 12 40 30 59 17 17 30 26 30 19 0 -19 16 -12 18 9
4 43 6 50 14 50 4 0 8 -7 8 -15 0 -28 15 -15 17 15 1 18 -2 28 -7 25 -6 -4
-10 -1 -10 5 0 7 8 9 19 5 13 -4 23 0 29 11 8 15 9 15 15 0 4 -10 3 -15 -3
-11 -19 12 -10 -14 10 -28 20 -14 17 -27 -7 -27 -7 0 -13 7 -13 16 0 18 -22
14 -28 -6 -3 -8 0 -10 8 -5 9 5 10 2 6 -11 -3 -11 -1 -26 5 -34 9 -13 10 -12
5 3 -3 9 -1 17 4 17 6 0 10 -5 10 -12 0 -6 7 -3 16 8 15 19 15 19 10 -1 -5
-16 -1 -21 14 -21 11 0 20 4 20 9 0 5 7 4 15 -3 12 -10 21 -10 42 -1 14 6 23
14 20 18 -4 3 -13 1 -21 -6 -11 -9 -15 -7 -19 10 -3 11 -10 18 -16 15 -6 -4
-7 5 0 26 11 41 12 38 -6 38 -18 0 -19 12 -4 27 9 9 9 20 -1 43 -7 17 -9 34
-5 38 4 4 58 7 120 7 99 0 116 2 135 20 27 24 42 59 34 80 -10 24 -89 66 -126
67 -49 1 -118 -6 -113 -11 3 -2 -10 -12 -28 -21 -17 -10 -35 -14 -38 -9 -6 11
-129 20 -129 10 0 -18 -95 10 -112 33 -8 12 -98 -30 -98 -46 0 -6 -3 -8 -7 -5
-9 10 -33 -13 -33 -32 0 -10 11 -28 24 -40 13 -13 27 -34 30 -47 4 -13 11 -24
16 -24 6 0 10 -7 10 -16 0 -10 6 -14 14 -11 10 4 13 1 9 -9 -3 -8 -7 -29 -8
-47 -2 -18 -3 -39 -4 -47 -1 -13 -2 -13 -11 0 -7 11 -10 11 -10 2 0 -7 -4 -11
-9 -8 -5 3 -12 -1 -15 -10 -3 -8 -2 -12 4 -9 14 9 13 -8 -2 -23 -8 -8 -15 -8
-24 -1 -9 8 -11 5 -7 -12 4 -16 3 -20 -6 -15 -9 6 -10 0 -6 -21 4 -16 3 -23
-2 -17 -4 7 -26 11 -48 10 -31 -1 -45 5 -63 24 -13 14 -21 21 -19 15 3 -5 -7
-19 -22 -30 -14 -10 -21 -12 -14 -4 19 23 1 42 -23 24 -10 -8 -22 -15 -26 -15
-12 0 -9 27 5 42 25 28 18 43 -9 18 -20 -19 -26 -20 -21 -7 8 22 5 21 -23 -3
-13 -11 -19 -20 -15 -20 5 0 -1 -10 -12 -22 -27 -30 -40 -53 -25 -44 16 10 15
-7 0 -23 -10 -10 -10 -15 -2 -18 7 -2 10 -13 7 -23 -8 -28 7 -111 17 -105 6 4
7 -8 4 -27 -4 -25 -3 -29 5 -18 12 17 13 4 2 -25 -5 -12 -3 -30 6 -47 12 -25
12 -28 -4 -29 -10 -1 -23 -1 -30 0 -8 1 -10 -10 -6 -35 4 -25 3 -35 -5 -30 -6
3 -13 -2 -15 -11 -4 -14 -5 -13 -6 4 0 12 3 23 9 25 6 2 7 19 1 48 l-9 45 -2
-45 c-1 -25 -4 -39 -7 -32 -2 6 -10 9 -15 6 -8 -5 -9 3 -5 24 4 17 2 34 -3 37
-6 3 -7 -1 -4 -9 3 -9 1 -16 -4 -16 -6 0 -13 -8 -15 -17 -3 -13 -5 -12 -6 5
-1 15 -5 21 -13 16 -7 -4 -8 -3 -4 5 4 6 13 8 19 5 7 -4 9 -4 5 1 -4 4 -3 17
3 29 10 21 10 21 -6 1 -13 -17 -17 -18 -25 -6 -6 10 -3 19 8 28 16 12 15 13
-3 11 -11 -2 -26 -12 -33 -23 -12 -19 -12 -18 -6 5 3 14 12 31 18 39 8 11 8
13 -1 8 -7 -4 -14 1 -18 14 -6 17 -9 19 -16 8 -7 -11 -9 -10 -9 4 0 11 -4 15
-12 11 -8 -5 -9 -2 -5 9 3 9 2 19 -3 22 -6 4 -10 -6 -10 -21 0 -22 -2 -25 -15
-14 -8 7 -12 17 -8 23 4 7 0 8 -12 4 -14 -6 -17 -3 -13 18 3 14 1 28 -3 31 -5
3 -9 -6 -9 -20 0 -35 -26 -24 -34 15 -3 19 -10 28 -17 24 -7 -5 -10 2 -7 18 2
16 -4 31 -15 39 -10 8 -21 34 -26 65 -4 29 -14 59 -21 68 -7 8 -8 15 -2 15 11
0 11 32 -1 41 -10 8 -53 195 -62 272 l-7 59 56 -46 c68 -55 106 -76 171 -92
50 -13 50 -13 10 -11 -37 2 -40 0 -43 -25 -3 -22 2 -29 23 -34 33 -8 88 1 173
28 114 37 161 72 112 85 -19 5 -16 9 27 40 70 49 196 177 261 263 30 41 63 83
73 92 10 10 20 26 24 38 3 11 12 20 20 20 9 0 13 11 13 33 -1 17 7 57 15 87
10 32 17 91 17 141 0 93 5 103 57 119 34 10 135 12 158 4z m1551 -457 c-24
-77 -68 -296 -86 -432 -7 -46 -14 -65 -35 -82 -34 -30 -49 -29 -63 2 -15 33
-15 55 -1 55 8 0 7 5 -2 16 -8 10 -9 18 -2 22 5 4 9 18 8 32 -13 133 -5 191
35 262 14 26 13 91 -2 82 -7 -4 -8 -3 -4 5 4 7 0 28 -9 47 -9 20 -14 38 -11
41 3 4 6 1 6 -5 0 -7 5 -12 10 -12 6 0 9 3 9 8 -4 24 3 38 21 39 11 1 20 -4
20 -10 1 -7 11 -34 24 -62 l23 -50 21 41 c20 39 34 92 38 144 3 47 6 45 16 -8
9 -47 6 -64 -16 -135z"/>
<path d="M3896 3202 c-2 -4 11 -40 29 -79 33 -72 44 -116 45 -186 0 -32 3 -37
18 -33 10 4 27 -1 38 -9 19 -15 19 -15 0 -30 -27 -21 -39 -19 -31 5 4 11 2 20
-4 20 -6 0 -11 -8 -11 -17 1 -32 38 -199 39 -175 0 12 5 22 10 22 5 0 11 14
15 32 3 17 8 29 11 26 3 -3 -4 -44 -15 -93 -12 -48 -19 -89 -16 -92 10 -11 26
10 36 48 22 81 14 339 -10 347 -6 2 -8 8 -4 13 17 29 -72 189 -97 173 -5 -3
-9 1 -9 9 0 8 -7 18 -16 21 -20 8 -22 8 -28 -2z"/>
<path d="M3299 3056 c-2 -2 -22 -6 -44 -8 -46 -6 -76 -19 -116 -56 -27 -23
-41 -51 -20 -38 8 5 63 6 216 4 33 -1 95 0 138 1 70 2 79 4 87 24 l9 22 0 -22
c1 -22 21 -34 21 -13 0 6 9 10 21 10 40 0 7 19 -74 44 -73 22 -226 43 -238 32z"/>
<path d="M1799 3095 c-111 -58 -144 -138 -144 -355 0 -128 3 -153 24 -212 14
-38 29 -68 35 -68 6 0 29 -22 51 -50 22 -27 45 -49 51 -50 8 0 10 65 7 233 -4
214 3 330 27 480 4 26 5 47 1 47 -3 -1 -27 -12 -52 -25z"/>
<path d="M2065 2994 c-19 -16 -19 -16 5 -9 22 7 24 6 11 -9 -8 -9 -20 -15 -28
-12 -8 3 -11 1 -8 -4 3 -5 -8 -24 -25 -41 -16 -18 -30 -37 -31 -43 0 -6 -2
-19 -4 -29 -4 -22 3 -25 76 -31 30 -3 59 -6 65 -7 5 -1 26 -1 47 0 34 1 38 4
32 21 -6 18 -2 20 30 20 21 0 74 9 119 20 44 11 102 22 129 26 26 3 47 9 47
13 0 4 -11 18 -26 31 -19 19 -27 21 -33 11 -6 -10 -10 -9 -15 4 -5 15 -18 17
-99 12 -50 -3 -105 -8 -122 -11 -16 -4 -39 -8 -50 -10 -32 -6 -108 -38 -126
-53 -8 -7 -18 -13 -22 -13 -8 0 32 69 55 94 29 32 8 47 -27 20z"/>
<path d="M2939 2101 c-24 -20 -24 -20 -4 -35 11 -8 15 -16 8 -16 -9 0 -10 -7
-4 -22 5 -13 15 -22 22 -20 9 2 10 0 1 -11 -15 -18 39 -80 62 -71 11 4 16 0
16 -11 0 -14 3 -15 14 -6 10 9 15 8 20 -4 3 -8 11 -15 17 -15 8 0 7 5 -2 17
-12 15 -12 16 4 10 15 -6 17 -3 12 14 l-7 21 21 -21 c12 -12 21 -27 22 -33 0
-7 4 -4 8 7 11 26 2 53 -10 33 -7 -10 -9 -10 -10 2 -1 8 -1 19 0 23 1 5 -3 6
-9 2 -5 -3 -10 1 -10 9 0 9 -4 15 -9 14 -5 -2 -16 6 -25 17 -15 19 -15 19 -9
-4 5 -19 3 -22 -8 -16 -11 7 -12 6 -2 -6 10 -13 10 -16 -2 -16 -18 0 -48 63
-42 88 3 10 1 19 -4 19 -5 0 -9 6 -9 14 0 8 -5 18 -12 22 -8 5 -9 2 -4 -12 16
-39 18 -54 7 -54 -7 0 -9 5 -6 10 3 6 -1 17 -10 26 -9 9 -14 23 -11 30 7 19 3
18 -25 -5z"/>
<path d="M2624 1518 c-3 -5 3 -12 15 -15 21 -5 30 -23 12 -23 -5 0 -12 -12
-16 -27 -5 -20 -9 -23 -15 -13 -6 10 -11 4 -18 -21 -11 -43 -5 -61 19 -54 14
5 17 2 14 -14 -4 -20 8 -26 44 -22 7 2 10 -2 6 -8 -3 -6 -3 -11 2 -12 43 -4
54 -7 60 -12 3 -4 12 1 20 11 8 9 12 11 8 5 -3 -7 -2 -13 4 -13 6 0 8 -8 4
-17 -4 -12 0 -11 11 5 16 20 56 31 56 15 0 -5 22 -6 50 -5 27 2 49 7 49 10 -4
28 2 34 16 16 9 -12 14 -14 15 -6 0 7 5 10 10 7 6 -3 10 0 10 7 0 9 3 9 10 -2
8 -13 10 -13 10 2 0 16 26 18 50 3 5 -3 7 0 4 8 -3 8 2 17 11 21 9 3 13 10 10
16 -3 5 1 10 10 10 9 0 14 4 10 9 -3 5 -1 12 5 16 18 11 11 27 -9 20 -11 -3
-22 -1 -26 5 -9 14 -33 13 -38 -2 -2 -7 -2 -3 0 10 2 12 -1 22 -7 22 -5 0 -10
-6 -10 -12 0 -8 -7 -5 -15 6 -13 17 -15 17 -15 3 0 -13 -5 -15 -22 -8 -23 8
-37 31 -19 31 6 0 11 7 11 15 0 12 -14 15 -70 15 -56 0 -70 -3 -70 -15 0 -8
-4 -15 -10 -15 -5 0 -7 6 -5 13 4 9 -11 13 -57 14 -35 1 -78 4 -96 6 -18 3
-35 0 -38 -5z"/>
</g>
</svg>
